# Ledge Model - Simple Box

v -0.5 0.0 0.5
v 0.5 0.0 0.5
v 0.5 0.5 0.5
v -0.5 0.5 0.5
v -0.5 0.0 -0.5
v 0.5 0.0 -0.5
v 0.5 0.5 -0.5
v -0.5 0.5 -0.5

vt 0.0 0.0
vt 1.0 0.0
vt 1.0 1.0
vt 0.0 1.0

vn 0.0 1.0 0.0
vn 0.0 -1.0 0.0
vn 0.0 0.0 1.0
vn 0.0 0.0 -1.0
vn 1.0 0.0 0.0
vn -1.0 0.0 0.0

# Top Face
f 4/1/1 3/2/1 7/3/1
f 7/3/1 8/4/1 4/1/1
# Bottom Face
f 1/1/2 5/2/2 6/3/2
f 6/3/2 2/4/2 1/1/2
# Front Face
f 1/1/3 2/2/3 3/3/3
f 3/3/3 4/4/3 1/1/3
# Back Face
f 5/1/4 8/2/4 7/3/4
f 7/3/4 6/4/4 5/1/4
# Right Face
f 2/1/5 6/2/5 7/3/5
f 7/3/5 3/4/5 2/1/5
# Left Face
f 5/1/6 1/2/6 4/3/6
f 4/3/6 8/4/6 5/1/6